<svg xmlns="http://www.w3.org/2000/svg" version="1.1" xmlns:xlink="http://www.w3.org/1999/xlink" xmlns:svgjs="http://svgjs.com/svgjs" width="1440" height="1000" preserveAspectRatio="none" viewBox="0 0 1440 1000"><g mask="url(&quot;#SvgjsMask1939&quot;)" fill="none"><rect width="1440" height="1000" x="0" y="0" fill="url(#SvgjsLinearGradient1940)"></rect><path d="M139.83 285.59L204.79 323.09L204.79 398.09L139.83 435.59L74.88 398.09L74.88 323.09zM74.88 398.09L139.83 435.59L139.83 510.59L74.88 548.09L9.93 510.59L9.93 435.59zM74.88 623.09L139.83 660.59L139.83 735.59L74.88 773.09L9.93 735.59L9.93 660.59zM269.74 60.59L334.69 98.09L334.69 173.09L269.74 210.59L204.79 173.09L204.79 98.09zM334.69 -51.91L399.65 -14.41L399.65 60.59L334.69 98.09L269.74 60.59L269.74 -14.41zM399.65 285.59L464.6 323.09L464.6 398.09L399.65 435.59L334.69 398.09L334.69 323.09zM334.69 623.09L399.65 660.59L399.65 735.59L334.69 773.09L269.74 735.59L269.74 660.59zM399.65 960.59L464.6 998.09L464.6 1073.09L399.65 1110.59L334.69 1073.09L334.69 998.09zM529.56 60.59L594.51 98.09L594.51 173.09L529.56 210.59L464.6 173.09L464.6 98.09zM464.6 398.09L529.56 435.59L529.56 510.59L464.6 548.09L399.65 510.59L399.65 435.59zM659.46 285.59L724.42 323.09L724.42 398.09L659.46 435.59L594.51 398.09L594.51 323.09zM659.46 960.59L724.42 998.09L724.42 1073.09L659.46 1110.59L594.51 1073.09L594.51 998.09zM789.37 60.59L854.33 98.09L854.33 173.09L789.37 210.59L724.42 173.09L724.42 98.09zM724.42 398.09L789.37 435.59L789.37 510.59L724.42 548.09L659.46 510.59L659.46 435.59zM919.28 285.59L984.23 323.09L984.23 398.09L919.28 435.59L854.32 398.09L854.32 323.09zM919.28 510.59L984.23 548.09L984.23 623.09L919.28 660.59L854.32 623.09L854.32 548.09zM1049.19 285.59L1114.14 323.09L1114.14 398.09L1049.19 435.59L984.23 398.09L984.23 323.09zM1049.19 510.59L1114.14 548.09L1114.14 623.09L1049.19 660.59L984.23 623.09L984.23 548.09zM1114.14 -51.91L1179.09 -14.41L1179.09 60.59L1114.14 98.09L1049.19 60.59L1049.19 -14.41zM1179.09 60.59L1244.05 98.09L1244.05 173.09L1179.09 210.59L1114.14 173.09L1114.14 98.09zM1114.14 398.09L1179.09 435.59L1179.09 510.59L1114.14 548.09L1049.19 510.59L1049.19 435.59zM1114.14 848.09L1179.09 885.59L1179.09 960.59L1114.14 998.09L1049.19 960.59L1049.19 885.59zM1179.09 960.59L1244.05 998.09L1244.05 1073.09L1179.09 1110.59L1114.14 1073.09L1114.14 998.09zM1309 60.59L1373.95 98.09L1373.95 173.09L1309 210.59L1244.05 173.09L1244.05 98.09zM1244.05 173.09L1309 210.59L1309 285.59L1244.05 323.09L1179.09 285.59L1179.09 210.59zM1309 285.59L1373.95 323.09L1373.95 398.09L1309 435.59L1244.05 398.09L1244.05 323.09zM1244.05 623.09L1309 660.59L1309 735.59L1244.05 773.09L1179.09 735.59L1179.09 660.59zM1438.91 285.59L1503.86 323.09L1503.86 398.09L1438.91 435.59L1373.95 398.09L1373.95 323.09zM1373.95 398.09L1438.91 435.59L1438.91 510.59L1373.95 548.09L1309 510.59L1309 435.59zM1438.91 510.59L1503.86 548.09L1503.86 623.09L1438.91 660.59L1373.95 623.09L1373.95 548.09zM1373.95 848.09L1438.91 885.59L1438.91 960.59L1373.95 998.09L1309 960.59L1309 885.59zM1438.91 960.59L1503.86 998.09L1503.86 1073.09L1438.91 1110.59L1373.95 1073.09L1373.95 998.09zM1568.82 60.59L1633.77 98.09L1633.77 173.09L1568.82 210.59L1503.86 173.09L1503.86 98.09zM1568.82 285.59L1633.77 323.09L1633.77 398.09L1568.82 435.59L1503.86 398.09L1503.86 323.09zM1503.86 398.09L1568.82 435.59L1568.82 510.59L1503.86 548.09L1438.91 510.59L1438.91 435.59zM1503.86 848.09L1568.82 885.59L1568.82 960.59L1503.86 998.09L1438.91 960.59L1438.91 885.59zM1568.82 960.59L1633.77 998.09L1633.77 1073.09L1568.82 1110.59L1503.86 1073.09L1503.86 998.09z" stroke="rgba(86, 168, 166, 0.34)" stroke-width="2"></path><path d="M132.33 285.59 a7.5 7.5 0 1 0 15 0 a7.5 7.5 0 1 0 -15 0zM197.29 323.09 a7.5 7.5 0 1 0 15 0 a7.5 7.5 0 1 0 -15 0zM197.29 398.09 a7.5 7.5 0 1 0 15 0 a7.5 7.5 0 1 0 -15 0zM132.33 435.59 a7.5 7.5 0 1 0 15 0 a7.5 7.5 0 1 0 -15 0zM67.38 398.09 a7.5 7.5 0 1 0 15 0 a7.5 7.5 0 1 0 -15 0zM67.38 323.09 a7.5 7.5 0 1 0 15 0 a7.5 7.5 0 1 0 -15 0zM132.33 510.59 a7.5 7.5 0 1 0 15 0 a7.5 7.5 0 1 0 -15 0zM67.38 548.09 a7.5 7.5 0 1 0 15 0 a7.5 7.5 0 1 0 -15 0zM2.43 510.59 a7.5 7.5 0 1 0 15 0 a7.5 7.5 0 1 0 -15 0zM2.43 435.59 a7.5 7.5 0 1 0 15 0 a7.5 7.5 0 1 0 -15 0zM67.38 623.09 a7.5 7.5 0 1 0 15 0 a7.5 7.5 0 1 0 -15 0zM132.33 660.59 a7.5 7.5 0 1 0 15 0 a7.5 7.5 0 1 0 -15 0zM132.33 735.59 a7.5 7.5 0 1 0 15 0 a7.5 7.5 0 1 0 -15 0zM67.38 773.09 a7.5 7.5 0 1 0 15 0 a7.5 7.5 0 1 0 -15 0zM2.43 735.59 a7.5 7.5 0 1 0 15 0 a7.5 7.5 0 1 0 -15 0zM2.43 660.59 a7.5 7.5 0 1 0 15 0 a7.5 7.5 0 1 0 -15 0zM262.24 60.59 a7.5 7.5 0 1 0 15 0 a7.5 7.5 0 1 0 -15 0zM327.19 98.09 a7.5 7.5 0 1 0 15 0 a7.5 7.5 0 1 0 -15 0zM327.19 173.09 a7.5 7.5 0 1 0 15 0 a7.5 7.5 0 1 0 -15 0zM262.24 210.59 a7.5 7.5 0 1 0 15 0 a7.5 7.5 0 1 0 -15 0zM197.29 173.09 a7.5 7.5 0 1 0 15 0 a7.5 7.5 0 1 0 -15 0zM197.29 98.09 a7.5 7.5 0 1 0 15 0 a7.5 7.5 0 1 0 -15 0zM327.19 -51.91 a7.5 7.5 0 1 0 15 0 a7.5 7.5 0 1 0 -15 0zM392.15 -14.41 a7.5 7.5 0 1 0 15 0 a7.5 7.5 0 1 0 -15 0zM392.15 60.59 a7.5 7.5 0 1 0 15 0 a7.5 7.5 0 1 0 -15 0zM262.24 -14.41 a7.5 7.5 0 1 0 15 0 a7.5 7.5 0 1 0 -15 0zM392.15 285.59 a7.5 7.5 0 1 0 15 0 a7.5 7.5 0 1 0 -15 0zM457.1 323.09 a7.5 7.5 0 1 0 15 0 a7.5 7.5 0 1 0 -15 0zM457.1 398.09 a7.5 7.5 0 1 0 15 0 a7.5 7.5 0 1 0 -15 0zM392.15 435.59 a7.5 7.5 0 1 0 15 0 a7.5 7.5 0 1 0 -15 0zM327.19 398.09 a7.5 7.5 0 1 0 15 0 a7.5 7.5 0 1 0 -15 0zM327.19 323.09 a7.5 7.5 0 1 0 15 0 a7.5 7.5 0 1 0 -15 0zM327.19 623.09 a7.5 7.5 0 1 0 15 0 a7.5 7.5 0 1 0 -15 0zM392.15 660.59 a7.5 7.5 0 1 0 15 0 a7.5 7.5 0 1 0 -15 0zM392.15 735.59 a7.5 7.5 0 1 0 15 0 a7.5 7.5 0 1 0 -15 0zM327.19 773.09 a7.5 7.5 0 1 0 15 0 a7.5 7.5 0 1 0 -15 0zM262.24 735.59 a7.5 7.5 0 1 0 15 0 a7.5 7.5 0 1 0 -15 0zM262.24 660.59 a7.5 7.5 0 1 0 15 0 a7.5 7.5 0 1 0 -15 0zM392.15 960.59 a7.5 7.5 0 1 0 15 0 a7.5 7.5 0 1 0 -15 0zM457.1 998.09 a7.5 7.5 0 1 0 15 0 a7.5 7.5 0 1 0 -15 0zM457.1 1073.09 a7.5 7.5 0 1 0 15 0 a7.5 7.5 0 1 0 -15 0zM392.15 1110.59 a7.5 7.5 0 1 0 15 0 a7.5 7.5 0 1 0 -15 0zM327.19 1073.09 a7.5 7.5 0 1 0 15 0 a7.5 7.5 0 1 0 -15 0zM327.19 998.09 a7.5 7.5 0 1 0 15 0 a7.5 7.5 0 1 0 -15 0zM522.06 60.59 a7.5 7.5 0 1 0 15 0 a7.5 7.5 0 1 0 -15 0zM587.01 98.09 a7.5 7.5 0 1 0 15 0 a7.5 7.5 0 1 0 -15 0zM587.01 173.09 a7.5 7.5 0 1 0 15 0 a7.5 7.5 0 1 0 -15 0zM522.06 210.59 a7.5 7.5 0 1 0 15 0 a7.5 7.5 0 1 0 -15 0zM457.1 173.09 a7.5 7.5 0 1 0 15 0 a7.5 7.5 0 1 0 -15 0zM457.1 98.09 a7.5 7.5 0 1 0 15 0 a7.5 7.5 0 1 0 -15 0zM522.06 435.59 a7.5 7.5 0 1 0 15 0 a7.5 7.5 0 1 0 -15 0zM522.06 510.59 a7.5 7.5 0 1 0 15 0 a7.5 7.5 0 1 0 -15 0zM457.1 548.09 a7.5 7.5 0 1 0 15 0 a7.5 7.5 0 1 0 -15 0zM392.15 510.59 a7.5 7.5 0 1 0 15 0 a7.5 7.5 0 1 0 -15 0zM651.96 285.59 a7.5 7.5 0 1 0 15 0 a7.5 7.5 0 1 0 -15 0zM716.92 323.09 a7.5 7.5 0 1 0 15 0 a7.5 7.5 0 1 0 -15 0zM716.92 398.09 a7.5 7.5 0 1 0 15 0 a7.5 7.5 0 1 0 -15 0zM651.96 435.59 a7.5 7.5 0 1 0 15 0 a7.5 7.5 0 1 0 -15 0zM587.01 398.09 a7.5 7.5 0 1 0 15 0 a7.5 7.5 0 1 0 -15 0zM587.01 323.09 a7.5 7.5 0 1 0 15 0 a7.5 7.5 0 1 0 -15 0zM651.96 960.59 a7.5 7.5 0 1 0 15 0 a7.5 7.5 0 1 0 -15 0zM716.92 998.09 a7.5 7.5 0 1 0 15 0 a7.5 7.5 0 1 0 -15 0zM716.92 1073.09 a7.5 7.5 0 1 0 15 0 a7.5 7.5 0 1 0 -15 0zM651.96 1110.59 a7.5 7.5 0 1 0 15 0 a7.5 7.5 0 1 0 -15 0zM587.01 1073.09 a7.5 7.5 0 1 0 15 0 a7.5 7.5 0 1 0 -15 0zM587.01 998.09 a7.5 7.5 0 1 0 15 0 a7.5 7.5 0 1 0 -15 0zM781.87 60.59 a7.5 7.5 0 1 0 15 0 a7.5 7.5 0 1 0 -15 0zM846.83 98.09 a7.5 7.5 0 1 0 15 0 a7.5 7.5 0 1 0 -15 0zM846.83 173.09 a7.5 7.5 0 1 0 15 0 a7.5 7.5 0 1 0 -15 0zM781.87 210.59 a7.5 7.5 0 1 0 15 0 a7.5 7.5 0 1 0 -15 0zM716.92 173.09 a7.5 7.5 0 1 0 15 0 a7.5 7.5 0 1 0 -15 0zM716.92 98.09 a7.5 7.5 0 1 0 15 0 a7.5 7.5 0 1 0 -15 0zM781.87 435.59 a7.5 7.5 0 1 0 15 0 a7.5 7.5 0 1 0 -15 0zM781.87 510.59 a7.5 7.5 0 1 0 15 0 a7.5 7.5 0 1 0 -15 0zM716.92 548.09 a7.5 7.5 0 1 0 15 0 a7.5 7.5 0 1 0 -15 0zM651.96 510.59 a7.5 7.5 0 1 0 15 0 a7.5 7.5 0 1 0 -15 0zM911.78 285.59 a7.5 7.5 0 1 0 15 0 a7.5 7.5 0 1 0 -15 0zM976.73 323.09 a7.5 7.5 0 1 0 15 0 a7.5 7.5 0 1 0 -15 0zM976.73 398.09 a7.5 7.5 0 1 0 15 0 a7.5 7.5 0 1 0 -15 0zM911.78 435.59 a7.5 7.5 0 1 0 15 0 a7.5 7.5 0 1 0 -15 0zM846.82 398.09 a7.5 7.5 0 1 0 15 0 a7.5 7.5 0 1 0 -15 0zM846.82 323.09 a7.5 7.5 0 1 0 15 0 a7.5 7.5 0 1 0 -15 0zM911.78 510.59 a7.5 7.5 0 1 0 15 0 a7.5 7.5 0 1 0 -15 0zM976.73 548.09 a7.5 7.5 0 1 0 15 0 a7.5 7.5 0 1 0 -15 0zM976.73 623.09 a7.5 7.5 0 1 0 15 0 a7.5 7.5 0 1 0 -15 0zM911.78 660.59 a7.5 7.5 0 1 0 15 0 a7.5 7.5 0 1 0 -15 0zM846.82 623.09 a7.5 7.5 0 1 0 15 0 a7.5 7.5 0 1 0 -15 0zM846.82 548.09 a7.5 7.5 0 1 0 15 0 a7.5 7.5 0 1 0 -15 0zM1041.69 285.59 a7.5 7.5 0 1 0 15 0 a7.5 7.5 0 1 0 -15 0zM1106.64 323.09 a7.5 7.5 0 1 0 15 0 a7.5 7.5 0 1 0 -15 0zM1106.64 398.09 a7.5 7.5 0 1 0 15 0 a7.5 7.5 0 1 0 -15 0zM1041.69 435.59 a7.5 7.5 0 1 0 15 0 a7.5 7.5 0 1 0 -15 0zM1041.69 510.59 a7.5 7.5 0 1 0 15 0 a7.5 7.5 0 1 0 -15 0zM1106.64 548.09 a7.5 7.5 0 1 0 15 0 a7.5 7.5 0 1 0 -15 0zM1106.64 623.09 a7.5 7.5 0 1 0 15 0 a7.5 7.5 0 1 0 -15 0zM1041.69 660.59 a7.5 7.5 0 1 0 15 0 a7.5 7.5 0 1 0 -15 0zM1106.64 -51.91 a7.5 7.5 0 1 0 15 0 a7.5 7.5 0 1 0 -15 0zM1171.59 -14.41 a7.5 7.5 0 1 0 15 0 a7.5 7.5 0 1 0 -15 0zM1171.59 60.59 a7.5 7.5 0 1 0 15 0 a7.5 7.5 0 1 0 -15 0zM1106.64 98.09 a7.5 7.5 0 1 0 15 0 a7.5 7.5 0 1 0 -15 0zM1041.69 60.59 a7.5 7.5 0 1 0 15 0 a7.5 7.5 0 1 0 -15 0zM1041.69 -14.41 a7.5 7.5 0 1 0 15 0 a7.5 7.5 0 1 0 -15 0zM1236.55 98.09 a7.5 7.5 0 1 0 15 0 a7.5 7.5 0 1 0 -15 0zM1236.55 173.09 a7.5 7.5 0 1 0 15 0 a7.5 7.5 0 1 0 -15 0zM1171.59 210.59 a7.5 7.5 0 1 0 15 0 a7.5 7.5 0 1 0 -15 0zM1106.64 173.09 a7.5 7.5 0 1 0 15 0 a7.5 7.5 0 1 0 -15 0zM1171.59 435.59 a7.5 7.5 0 1 0 15 0 a7.5 7.5 0 1 0 -15 0zM1171.59 510.59 a7.5 7.5 0 1 0 15 0 a7.5 7.5 0 1 0 -15 0zM1106.64 848.09 a7.5 7.5 0 1 0 15 0 a7.5 7.5 0 1 0 -15 0zM1171.59 885.59 a7.5 7.5 0 1 0 15 0 a7.5 7.5 0 1 0 -15 0zM1171.59 960.59 a7.5 7.5 0 1 0 15 0 a7.5 7.5 0 1 0 -15 0zM1106.64 998.09 a7.5 7.5 0 1 0 15 0 a7.5 7.5 0 1 0 -15 0zM1041.69 960.59 a7.5 7.5 0 1 0 15 0 a7.5 7.5 0 1 0 -15 0zM1041.69 885.59 a7.5 7.5 0 1 0 15 0 a7.5 7.5 0 1 0 -15 0zM1236.55 998.09 a7.5 7.5 0 1 0 15 0 a7.5 7.5 0 1 0 -15 0zM1236.55 1073.09 a7.5 7.5 0 1 0 15 0 a7.5 7.5 0 1 0 -15 0zM1171.59 1110.59 a7.5 7.5 0 1 0 15 0 a7.5 7.5 0 1 0 -15 0zM1106.64 1073.09 a7.5 7.5 0 1 0 15 0 a7.5 7.5 0 1 0 -15 0zM1301.5 60.59 a7.5 7.5 0 1 0 15 0 a7.5 7.5 0 1 0 -15 0zM1366.45 98.09 a7.5 7.5 0 1 0 15 0 a7.5 7.5 0 1 0 -15 0zM1366.45 173.09 a7.5 7.5 0 1 0 15 0 a7.5 7.5 0 1 0 -15 0zM1301.5 210.59 a7.5 7.5 0 1 0 15 0 a7.5 7.5 0 1 0 -15 0zM1301.5 285.59 a7.5 7.5 0 1 0 15 0 a7.5 7.5 0 1 0 -15 0zM1236.55 323.09 a7.5 7.5 0 1 0 15 0 a7.5 7.5 0 1 0 -15 0zM1171.59 285.59 a7.5 7.5 0 1 0 15 0 a7.5 7.5 0 1 0 -15 0zM1366.45 323.09 a7.5 7.5 0 1 0 15 0 a7.5 7.5 0 1 0 -15 0zM1366.45 398.09 a7.5 7.5 0 1 0 15 0 a7.5 7.5 0 1 0 -15 0zM1301.5 435.59 a7.5 7.5 0 1 0 15 0 a7.5 7.5 0 1 0 -15 0zM1236.55 398.09 a7.5 7.5 0 1 0 15 0 a7.5 7.5 0 1 0 -15 0zM1236.55 623.09 a7.5 7.5 0 1 0 15 0 a7.5 7.5 0 1 0 -15 0zM1301.5 660.59 a7.5 7.5 0 1 0 15 0 a7.5 7.5 0 1 0 -15 0zM1301.5 735.59 a7.5 7.5 0 1 0 15 0 a7.5 7.5 0 1 0 -15 0zM1236.55 773.09 a7.5 7.5 0 1 0 15 0 a7.5 7.5 0 1 0 -15 0zM1171.59 735.59 a7.5 7.5 0 1 0 15 0 a7.5 7.5 0 1 0 -15 0zM1171.59 660.59 a7.5 7.5 0 1 0 15 0 a7.5 7.5 0 1 0 -15 0zM1431.41 285.59 a7.5 7.5 0 1 0 15 0 a7.5 7.5 0 1 0 -15 0zM1496.36 323.09 a7.5 7.5 0 1 0 15 0 a7.5 7.5 0 1 0 -15 0zM1496.36 398.09 a7.5 7.5 0 1 0 15 0 a7.5 7.5 0 1 0 -15 0zM1431.41 435.59 a7.5 7.5 0 1 0 15 0 a7.5 7.5 0 1 0 -15 0zM1431.41 510.59 a7.5 7.5 0 1 0 15 0 a7.5 7.5 0 1 0 -15 0zM1366.45 548.09 a7.5 7.5 0 1 0 15 0 a7.5 7.5 0 1 0 -15 0zM1301.5 510.59 a7.5 7.5 0 1 0 15 0 a7.5 7.5 0 1 0 -15 0zM1496.36 548.09 a7.5 7.5 0 1 0 15 0 a7.5 7.5 0 1 0 -15 0zM1496.36 623.09 a7.5 7.5 0 1 0 15 0 a7.5 7.5 0 1 0 -15 0zM1431.41 660.59 a7.5 7.5 0 1 0 15 0 a7.5 7.5 0 1 0 -15 0zM1366.45 623.09 a7.5 7.5 0 1 0 15 0 a7.5 7.5 0 1 0 -15 0zM1366.45 848.09 a7.5 7.5 0 1 0 15 0 a7.5 7.5 0 1 0 -15 0zM1431.41 885.59 a7.5 7.5 0 1 0 15 0 a7.5 7.5 0 1 0 -15 0zM1431.41 960.59 a7.5 7.5 0 1 0 15 0 a7.5 7.5 0 1 0 -15 0zM1366.45 998.09 a7.5 7.5 0 1 0 15 0 a7.5 7.5 0 1 0 -15 0zM1301.5 960.59 a7.5 7.5 0 1 0 15 0 a7.5 7.5 0 1 0 -15 0zM1301.5 885.59 a7.5 7.5 0 1 0 15 0 a7.5 7.5 0 1 0 -15 0zM1496.36 998.09 a7.5 7.5 0 1 0 15 0 a7.5 7.5 0 1 0 -15 0zM1496.36 1073.09 a7.5 7.5 0 1 0 15 0 a7.5 7.5 0 1 0 -15 0zM1431.41 1110.59 a7.5 7.5 0 1 0 15 0 a7.5 7.5 0 1 0 -15 0zM1366.45 1073.09 a7.5 7.5 0 1 0 15 0 a7.5 7.5 0 1 0 -15 0zM1561.32 60.59 a7.5 7.5 0 1 0 15 0 a7.5 7.5 0 1 0 -15 0zM1626.27 98.09 a7.5 7.5 0 1 0 15 0 a7.5 7.5 0 1 0 -15 0zM1626.27 173.09 a7.5 7.5 0 1 0 15 0 a7.5 7.5 0 1 0 -15 0zM1561.32 210.59 a7.5 7.5 0 1 0 15 0 a7.5 7.5 0 1 0 -15 0zM1496.36 173.09 a7.5 7.5 0 1 0 15 0 a7.5 7.5 0 1 0 -15 0zM1496.36 98.09 a7.5 7.5 0 1 0 15 0 a7.5 7.5 0 1 0 -15 0zM1561.32 285.59 a7.5 7.5 0 1 0 15 0 a7.5 7.5 0 1 0 -15 0zM1626.27 323.09 a7.5 7.5 0 1 0 15 0 a7.5 7.5 0 1 0 -15 0zM1626.27 398.09 a7.5 7.5 0 1 0 15 0 a7.5 7.5 0 1 0 -15 0zM1561.32 435.59 a7.5 7.5 0 1 0 15 0 a7.5 7.5 0 1 0 -15 0zM1561.32 510.59 a7.5 7.5 0 1 0 15 0 a7.5 7.5 0 1 0 -15 0zM1496.36 848.09 a7.5 7.5 0 1 0 15 0 a7.5 7.5 0 1 0 -15 0zM1561.32 885.59 a7.5 7.5 0 1 0 15 0 a7.5 7.5 0 1 0 -15 0zM1561.32 960.59 a7.5 7.5 0 1 0 15 0 a7.5 7.5 0 1 0 -15 0zM1626.27 998.09 a7.5 7.5 0 1 0 15 0 a7.5 7.5 0 1 0 -15 0zM1626.27 1073.09 a7.5 7.5 0 1 0 15 0 a7.5 7.5 0 1 0 -15 0zM1561.32 1110.59 a7.5 7.5 0 1 0 15 0 a7.5 7.5 0 1 0 -15 0z" fill="rgba(86, 168, 166, 0.34)"></path><path d="M349.39 119.12L437.73 170.12L437.73 272.12L349.39 323.12L261.05 272.12L261.05 170.12zM261.05 272.12L349.39 323.12L349.39 425.12L261.05 476.12L172.72 425.12L172.72 323.12zM349.39 731.12L437.73 782.12L437.73 884.12L349.39 935.12L261.05 884.12L261.05 782.12zM349.39 1037.12L437.73 1088.12L437.73 1190.12L349.39 1241.12L261.05 1190.12L261.05 1088.12zM437.73 -33.88L526.07 17.12L526.07 119.12L437.73 170.12L349.39 119.12L349.39 17.12zM879.41 119.12L967.75 170.12L967.75 272.12L879.41 323.12L791.08 272.12L791.08 170.12zM879.41 425.12L967.75 476.12L967.75 578.12L879.41 629.12L791.08 578.12L791.08 476.12zM791.08 578.12L879.41 629.12L879.41 731.12L791.08 782.12L702.74 731.12L702.74 629.12zM791.08 884.12L879.41 935.12L879.41 1037.12L791.08 1088.12L702.74 1037.12L702.74 935.12zM967.75 -33.88L1056.09 17.12L1056.09 119.12L967.75 170.12L879.41 119.12L879.41 17.12zM1232.76 425.12L1321.1 476.12L1321.1 578.12L1232.76 629.12L1144.43 578.12L1144.43 476.12zM1144.43 578.12L1232.76 629.12L1232.76 731.12L1144.43 782.12L1056.09 731.12L1056.09 629.12zM1321.1 272.12L1409.44 323.12L1409.44 425.12L1321.1 476.12L1232.76 425.12L1232.76 323.12zM1321.1 884.12L1409.44 935.12L1409.44 1037.12L1321.1 1088.12L1232.76 1037.12L1232.76 935.12zM1409.44 1037.12L1497.77 1088.12L1497.77 1190.12L1409.44 1241.12L1321.1 1190.12L1321.1 1088.12z" stroke="rgba(174, 254, 255, 0.66)" stroke-width="2"></path></g><defs><mask id="SvgjsMask1939"><rect width="1440" height="1000" fill="#ffffff"></rect></mask><linearGradient x1="7.64%" y1="-11%" x2="92.36%" y2="111%" gradientUnits="userSpaceOnUse" id="SvgjsLinearGradient1940"><stop stop-color="rgba(14, 42, 71, 1)" offset="0.16"></stop><stop stop-color="rgba(53, 133, 139, 1)" offset="0.79"></stop></linearGradient></defs></svg>